<?xml version="1.0" standalone="no"?>
<!DOCTYPE svg PUBLIC "-//W3C//DTD SVG 20010904//EN"
 "http://www.w3.org/TR/2001/REC-SVG-20010904/DTD/svg10.dtd">
<svg version="1.0" xmlns="http://www.w3.org/2000/svg"
 width="1219.000000pt" height="1219.000000pt" viewBox="0 0 1219.000000 1219.000000"
 preserveAspectRatio="xMidYMid meet">
<metadata>
Created by potrace 1.14, written by Peter Selinger 2001-2017
</metadata>
<g transform="translate(0.000000,1219.000000) scale(0.100000,-0.100000)"
fill="#000000" stroke="none">
<path d="M5857 11804 c-1 -1 -56 -5 -122 -8 -66 -4 -136 -9 -155 -11 -19 -2
-66 -6 -105 -9 -38 -4 -79 -8 -90 -10 -11 -2 -42 -7 -70 -10 -27 -4 -77 -11
-110 -16 -33 -5 -78 -12 -100 -15 -22 -4 -47 -8 -55 -10 -8 -3 -33 -7 -55 -11
-22 -3 -80 -15 -130 -26 -49 -11 -97 -21 -106 -23 -233 -48 -716 -208 -959
-317 -264 -119 -407 -192 -620 -316 -268 -157 -488 -312 -784 -552 -10 -8 -30
-26 -46 -40 -15 -14 -56 -50 -91 -80 -99 -85 -343 -328 -453 -450 -300 -335
-557 -699 -770 -1090 -73 -133 -190 -378 -236 -490 -12 -30 -31 -75 -42 -100
-11 -25 -21 -49 -23 -55 -1 -5 -7 -23 -14 -40 -15 -37 -81 -224 -86 -245 -2
-8 -13 -42 -24 -75 -12 -32 -23 -68 -26 -80 -2 -11 -21 -78 -40 -150 -20 -71
-38 -141 -41 -155 -3 -14 -11 -53 -19 -88 -8 -34 -17 -74 -20 -90 -3 -15 -7
-38 -10 -52 -3 -14 -8 -41 -11 -60 -3 -19 -7 -42 -9 -50 -2 -8 -7 -33 -10 -55
-3 -23 -7 -51 -10 -64 -2 -13 -7 -49 -10 -80 -4 -31 -8 -63 -10 -71 -3 -8 -7
-49 -11 -90 -3 -41 -8 -82 -9 -91 -26 -137 -26 -861 0 -1054 2 -16 7 -57 10
-90 5 -58 8 -80 20 -168 4 -23 9 -58 11 -77 20 -139 81 -436 113 -555 11 -38
29 -105 40 -147 83 -306 237 -694 404 -1020 98 -192 293 -524 339 -578 10 -11
18 -22 18 -25 0 -5 180 -257 189 -265 4 -3 20 -23 36 -45 25 -34 156 -193 190
-231 248 -280 531 -548 791 -750 49 -38 91 -71 94 -74 11 -13 250 -179 345
-239 55 -35 111 -71 125 -80 131 -84 473 -262 695 -361 180 -81 553 -213 750
-265 33 -9 65 -18 70 -19 64 -18 266 -64 306 -70 20 -3 42 -8 50 -10 8 -3 30
-7 49 -10 19 -3 46 -8 60 -10 88 -17 242 -38 365 -52 33 -3 74 -8 90 -10 209
-25 916 -25 1051 0 10 2 55 7 98 11 43 4 86 8 95 10 9 1 41 6 71 9 60 7 76 10
195 31 44 8 96 17 115 20 72 12 349 78 465 112 416 119 864 304 1203 497 35
20 65 36 67 36 6 0 224 135 320 199 165 108 444 318 536 402 14 13 47 42 75
64 64 52 432 419 517 516 327 373 623 813 830 1234 54 110 117 244 117 250 0
2 11 28 24 57 14 29 41 96 61 148 20 52 40 104 45 115 11 24 61 175 102 305
53 171 146 565 164 695 2 17 6 41 9 54 2 14 9 61 15 105 6 45 13 92 15 106 2
14 6 54 10 90 3 36 8 81 10 100 25 204 25 901 0 1029 -2 9 -6 51 -10 92 -8 92
-14 137 -20 169 -3 14 -7 41 -9 60 -3 19 -10 64 -16 100 -6 36 -13 81 -16 100
-9 69 -75 350 -114 491 -23 79 -42 151 -45 159 -5 20 -87 256 -123 355 -84
229 -278 630 -420 865 -134 223 -379 577 -469 675 -10 11 -36 43 -58 70 -21
28 -42 52 -45 55 -3 3 -43 48 -89 100 -96 108 -371 382 -452 450 -29 25 -60
52 -68 61 -9 8 -52 44 -96 80 -44 35 -82 67 -85 70 -3 3 -32 25 -65 50 -33 24
-62 46 -65 49 -28 30 -347 245 -490 330 -239 143 -588 315 -810 400 -30 11
-64 25 -75 30 -21 9 -143 52 -250 88 -112 38 -354 108 -436 126 -274 62 -413
87 -644 116 -44 6 -96 13 -115 15 -42 6 -139 13 -280 21 -90 5 -518 12 -523 8z"/>
</g>
</svg>
